<svg width="50" height="50" viewBox="0 0 50 50" fill="none" xmlns="http://www.w3.org/2000/svg">
<rect width="50" height="50" rx="25" fill="#F15454"/>
<path d="M29.5156 25L36.5469 32.1016C37.4609 32.9453 37.4609 34.3516 36.5469 35.1953L35 36.7422C34.1562 37.6562 32.75 37.6562 31.9062 36.7422L24.875 29.7109L17.7734 36.7422C16.9297 37.6562 15.5234 37.6562 14.6797 36.7422L13.1328 35.1953C12.2188 34.3516 12.2188 32.9453 13.1328 32.1016L20.1641 25L13.1328 17.9688C12.2188 17.125 12.2188 15.7188 13.1328 14.875L14.6797 13.3281C15.5234 12.4141 16.9297 12.4141 17.7734 13.3281L24.875 20.3594L31.9062 13.3281C32.75 12.4141 34.1562 12.4141 35 13.3281L36.5469 14.875C37.4609 15.7188 37.4609 17.125 36.5469 17.9688L29.5156 25Z" fill="white"/>
</svg>
